<?xml version="1.0" encoding="utf-8"?>
<!-- Generator: Adobe Illustrator 26.0.0, SVG Export Plug-In . SVG Version: 6.00 Build 0)  -->
<svg version="1.1" id="Camada_3" xmlns="http://www.w3.org/2000/svg" xmlns:xlink="http://www.w3.org/1999/xlink" x="0px" y="0px"
	 viewBox="0 0 1024 1024" style="enable-background:new 0 0 1024 1024;" xml:space="preserve">
<style type="text/css">
	.st0{fill:#FFFFFF;}
</style>
<polygon class="st0" points="681,609.9 712,624.1 712,751.7 529.6,866.3 346,750.8 346,533.3 234,482.9 234,721.7 183.8,783 
	529.3,1000.6 873,782.7 826,724.2 826,549.6 681,483.2 "/>
<path class="st0" d="M389,185.4v541.4L494,793V612h175V186L389,185.4z M564,516h-69V286h69V516z"/>
<polyline class="st0" points="233.7,196.3 185.3,149.5 311.8,30 747.5,30 874.2,149.4 826,194.8 826,472.7 711,420.2 711,145 
	347,145 347.4,329.8 377,343.4 377,469.8 234,404.1 234,197 "/>
</svg>
